<svg width="137" height="66" viewBox="0 0 137 66" fill="none" xmlns="http://www.w3.org/2000/svg">
<path d="M0.9 41.8H1C1.09333 41.8 1.18 41.76 1.26 41.68C1.34 41.6 1.40667 41.5067 1.46 41.4C1.52667 41.2933 1.57333 41.18 1.6 41.06C1.62667 40.9267 1.64 40.8067 1.64 40.7V30.06C1.64 29.9667 1.62667 29.86 1.6 29.74C1.57333 29.62 1.52667 29.5067 1.46 29.4C1.40667 29.28 1.33333 29.1867 1.24 29.12C1.16 29.04 1.06667 29 0.96 29H0.86V28.8H4.14C5.38 28.8 6.34667 29.0733 7.04 29.62C7.74667 30.1667 8.1 30.8933 8.1 31.8C8.1 32.1867 8.03333 32.5333 7.9 32.84C7.76667 33.1467 7.59333 33.42 7.38 33.66C7.18 33.9 6.96 34.1067 6.72 34.28C6.48 34.44 6.25333 34.5733 6.04 34.68C6.6 34.7867 7.06667 34.9667 7.44 35.22C7.81333 35.4733 8.11333 35.7667 8.34 36.1C8.58 36.42 8.74667 36.7667 8.84 37.14C8.93333 37.5133 8.98 37.88 8.98 38.24C8.98 38.9333 8.85333 39.52 8.6 40C8.34667 40.4667 8.00667 40.8533 7.58 41.16C7.16667 41.4533 6.68667 41.6667 6.14 41.8C5.60667 41.9333 5.05333 42 4.48 42H0.9V41.8ZM7.62 38.36C7.51333 37.3333 7.16667 36.54 6.58 35.98C5.99333 35.42 5.16667 35.14 4.1 35.14H2.98V41.34H4.14C5.22 41.34 6.06667 41.1 6.68 40.62C7.30667 40.1267 7.62 39.4467 7.62 38.58V38.36ZM6.8 31.98C6.76 31.2067 6.48667 30.5933 5.98 30.14C5.48667 29.6867 4.82 29.46 3.98 29.46H2.98V34.5H4.02C4.58 34.5 5.03333 34.4267 5.38 34.28C5.74 34.1333 6.02667 33.9467 6.24 33.72C6.45333 33.48 6.6 33.22 6.68 32.94C6.76 32.66 6.8 32.3867 6.8 32.12V31.98ZM11.8852 41.8H11.9852C12.0918 41.8 12.1852 41.7667 12.2652 41.7C12.3452 41.62 12.4118 41.5267 12.4652 41.42C12.5318 41.3133 12.5785 41.2 12.6052 41.08C12.6452 40.96 12.6652 40.8467 12.6652 40.74V30.04C12.6652 29.9467 12.6452 29.84 12.6052 29.72C12.5785 29.6 12.5318 29.4867 12.4652 29.38C12.4118 29.2733 12.3452 29.1867 12.2652 29.12C12.1852 29.04 12.0918 29 11.9852 29H11.8852V28.8H19.5852V30.66H19.3852C19.3585 30.3533 19.2385 30.0867 19.0252 29.86C18.8118 29.62 18.4785 29.5 18.0252 29.5H14.0052V34.56H17.3252C17.6318 34.56 17.8852 34.4667 18.0852 34.28C18.2985 34.0933 18.4052 33.8733 18.4052 33.62H18.6052V36.12H18.4052C18.4052 35.88 18.3052 35.6733 18.1052 35.5C17.9052 35.3267 17.6452 35.24 17.3252 35.24H14.0052V41.3H18.3852C18.6385 41.3 18.8585 41.24 19.0452 41.12C19.2318 41 19.3852 40.86 19.5052 40.7C19.6385 40.5267 19.7318 40.3467 19.7852 40.16C19.8518 39.96 19.8852 39.7933 19.8852 39.66H20.0852V42H11.8852V41.8ZM29.1681 29.32C28.1815 29.32 27.3215 29.5 26.5881 29.86C25.8681 30.2067 25.2681 30.6667 24.7881 31.24C24.3081 31.8 23.9481 32.4333 23.7081 33.14C23.4815 33.8467 23.3681 34.5467 23.3681 35.24C23.3681 36.0267 23.5215 36.8 23.8281 37.56C24.1348 38.3067 24.5548 38.9733 25.0881 39.56C25.6348 40.1333 26.2681 40.6 26.9881 40.96C27.7081 41.3067 28.4881 41.48 29.3281 41.48C29.5681 41.48 29.8481 41.4533 30.1681 41.4C30.5015 41.3467 30.8281 41.2467 31.1481 41.1C31.4681 40.94 31.7615 40.72 32.0281 40.44C32.3081 40.16 32.5215 39.7933 32.6681 39.34H32.8681V41.56C32.6681 41.56 32.4548 41.5867 32.2281 41.64C32.0148 41.6933 31.7748 41.7533 31.5081 41.82C31.1615 41.9133 30.7748 42 30.3481 42.08C29.9348 42.16 29.4948 42.2 29.0281 42.2C27.8681 42.2 26.8481 42 25.9681 41.6C25.0881 41.2 24.3548 40.68 23.7681 40.04C23.1815 39.4 22.7415 38.68 22.4481 37.88C22.1548 37.0667 22.0081 36.2467 22.0081 35.42C22.0081 34.5933 22.1548 33.7733 22.4481 32.96C22.7415 32.1467 23.1881 31.42 23.7881 30.78C24.3881 30.1267 25.1415 29.6 26.0481 29.2C26.9548 28.8 28.0215 28.6 29.2481 28.6C29.6881 28.6 30.0815 28.64 30.4281 28.72C30.7881 28.8 31.1081 28.88 31.3881 28.96C31.5881 29.0267 31.7681 29.08 31.9281 29.12C32.1015 29.1467 32.2681 29.16 32.4281 29.16V31.38H32.2281C32.1481 30.9667 32.0015 30.6267 31.7881 30.36C31.5748 30.08 31.3215 29.8667 31.0281 29.72C30.7481 29.5733 30.4415 29.4733 30.1081 29.42C29.7881 29.3533 29.4748 29.32 29.1681 29.32ZM43.7691 41.8H43.8691C43.9624 41.8 44.0491 41.7667 44.1291 41.7C44.2091 41.62 44.2757 41.5267 44.3291 41.42C44.3957 41.3 44.4424 41.18 44.4691 41.06C44.4957 40.9267 44.5091 40.8067 44.5091 40.7V35.26H38.1091V40.7C38.1091 40.8067 38.1224 40.9267 38.1491 41.06C38.1757 41.18 38.2157 41.2933 38.2691 41.4C38.3224 41.5067 38.3824 41.6 38.4491 41.68C38.5291 41.76 38.6224 41.8 38.7291 41.8H38.8291V42H36.0291V41.8H36.1291C36.2224 41.8 36.3091 41.7667 36.3891 41.7C36.4691 41.62 36.5357 41.5267 36.5891 41.42C36.6557 41.3 36.7024 41.18 36.7291 41.06C36.7557 40.9267 36.7691 40.8067 36.7691 40.7V30.04C36.7691 29.9467 36.7557 29.84 36.7291 29.72C36.7024 29.6 36.6624 29.4867 36.6091 29.38C36.5557 29.2733 36.4891 29.1867 36.4091 29.12C36.3291 29.04 36.2357 29 36.1291 29H36.0291V28.8H38.8291V29H38.7291C38.6224 29 38.5291 29.04 38.4491 29.12C38.3691 29.1867 38.3024 29.2733 38.2491 29.38C38.2091 29.4867 38.1757 29.6 38.1491 29.72C38.1224 29.84 38.1091 29.9467 38.1091 30.04V34.56H44.5091V30.04C44.5091 29.9467 44.4957 29.84 44.4691 29.72C44.4424 29.6 44.4024 29.4867 44.3491 29.38C44.2957 29.2733 44.2291 29.1867 44.1491 29.12C44.0691 29.04 43.9757 29 43.8691 29H43.7691V28.8H46.5691V29H46.4691C46.3624 29 46.2691 29.04 46.1891 29.12C46.1091 29.1867 46.0424 29.2733 45.9891 29.38C45.9491 29.4867 45.9157 29.6 45.8891 29.72C45.8624 29.84 45.8491 29.9467 45.8491 30.04V40.7C45.8491 40.8067 45.8624 40.9267 45.8891 41.06C45.9291 41.18 45.9757 41.2933 46.0291 41.4C46.0824 41.5067 46.1424 41.6 46.2091 41.68C46.2891 41.76 46.3757 41.8 46.4691 41.8H46.5691V42H43.7691V41.8ZM57.0705 41.8H57.1705C57.4905 41.8 57.6505 41.6533 57.6505 41.36C57.6505 41.2533 57.6305 41.14 57.5905 41.02L55.7905 36.16H52.2905L50.5505 40.94C50.5105 41.0467 50.4905 41.1467 50.4905 41.24C50.4905 41.4133 50.5371 41.5533 50.6305 41.66C50.7238 41.7533 50.8238 41.8 50.9305 41.8H51.0305V42H48.8105V41.8H48.9105C49.0838 41.8 49.2505 41.7 49.4105 41.5C49.5838 41.2867 49.7238 41.04 49.8305 40.76L54.4105 28.56L58.8905 40.64C58.9838 40.9067 59.1105 41.1667 59.2705 41.42C59.4438 41.6733 59.6638 41.8 59.9305 41.8H60.0305V42H57.0705V41.8ZM52.4905 35.48H55.5705L54.0305 31.3L52.4905 35.48ZM0.74 51.16H0.92C1.02667 51.16 1.14667 51.1467 1.28 51.12C1.41333 51.08 1.55333 51.0333 1.7 50.98C1.95333 50.9 2.25333 50.82 2.6 50.74C2.94667 50.6467 3.36667 50.6 3.86 50.6C4.48667 50.6 5.04 50.6867 5.52 50.86C6.01333 51.0333 6.42667 51.2667 6.76 51.56C7.10667 51.8533 7.36667 52.1933 7.54 52.58C7.71333 52.9667 7.8 53.38 7.8 53.82C7.8 54.4467 7.62 55.0067 7.26 55.5C6.91333 55.98 6.42 56.3867 5.78 56.72C6.68667 57.12 7.34667 57.6333 7.76 58.26C8.18667 58.8733 8.4 59.54 8.4 60.26C8.4 60.78 8.28667 61.28 8.06 61.76C7.84667 62.24 7.53333 62.66 7.12 63.02C6.70667 63.38 6.2 63.6667 5.6 63.88C5 64.0933 4.31333 64.2 3.54 64.2C2.98 64.2 2.52667 64.1533 2.18 64.06C1.83333 63.9667 1.53333 63.8667 1.28 63.76C1.12 63.6933 0.966667 63.64 0.82 63.6C0.686667 63.56 0.546667 63.54 0.4 63.54H0.22V61.32H0.42C0.54 61.6933 0.7 62.02 0.9 62.3C1.11333 62.5667 1.35333 62.7867 1.62 62.96C1.88667 63.1333 2.17333 63.2667 2.48 63.36C2.78667 63.44 3.1 63.48 3.42 63.48C3.83333 63.48 4.24 63.4133 4.64 63.28C5.05333 63.1333 5.41333 62.9333 5.72 62.68C6.04 62.4267 6.29333 62.12 6.48 61.76C6.68 61.3867 6.78 60.9733 6.78 60.52C6.78 60.0667 6.69333 59.6333 6.52 59.22C6.34667 58.7933 6.1 58.4267 5.78 58.12C5.47333 57.8133 5.10667 57.5667 4.68 57.38C4.25333 57.1933 3.78667 57.1 3.28 57.1H2.56V56.42H3.38C3.78 56.42 4.16 56.3667 4.52 56.26C4.88 56.14 5.19333 55.9733 5.46 55.76C5.74 55.5333 5.96 55.2667 6.12 54.96C6.28 54.6533 6.36 54.3 6.36 53.9C6.36 53.5 6.28 53.14 6.12 52.82C5.96 52.5 5.74667 52.2333 5.48 52.02C5.22667 51.7933 4.93333 51.62 4.6 51.5C4.28 51.38 3.94667 51.32 3.6 51.32C3.32 51.32 3.04667 51.36 2.78 51.44C2.51333 51.52 2.26 51.6467 2.02 51.82C1.78 51.9933 1.56667 52.2067 1.38 52.46C1.19333 52.7133 1.04667 53.02 0.94 53.38H0.74V51.16ZM18.9978 63.8H19.0978C19.4178 63.8 19.5778 63.6533 19.5778 63.36C19.5778 63.2533 19.5578 63.14 19.5178 63.02L17.7178 58.16H14.2178L12.4778 62.94C12.4378 63.0467 12.4178 63.1467 12.4178 63.24C12.4178 63.4133 12.4645 63.5533 12.5578 63.66C12.6511 63.7533 12.7511 63.8 12.8578 63.8H12.9578V64H10.7378V63.8H10.8378C11.0111 63.8 11.1778 63.7 11.3378 63.5C11.5111 63.2867 11.6511 63.04 11.7578 62.76L16.3378 50.56L20.8178 62.64C20.9111 62.9067 21.0378 63.1667 21.1978 63.42C21.3711 63.6733 21.5911 63.8 21.8578 63.8H21.9578V64H18.9978V63.8ZM14.4178 57.48H17.4978L15.9578 53.3L14.4178 57.48ZM24.3547 63.8H24.4547C24.548 63.8 24.6347 63.76 24.7147 63.68C24.7947 63.6 24.8614 63.5067 24.9147 63.4C24.9814 63.2933 25.028 63.18 25.0547 63.06C25.0814 62.9267 25.0947 62.8067 25.0947 62.7V52.06C25.0947 51.9667 25.0814 51.86 25.0547 51.74C25.028 51.62 24.9814 51.5067 24.9147 51.4C24.8614 51.28 24.788 51.1867 24.6947 51.12C24.6147 51.04 24.5214 51 24.4147 51H24.3147V50.8H27.5947C28.8347 50.8 29.8014 51.0733 30.4947 51.62C31.2014 52.1667 31.5547 52.8933 31.5547 53.8C31.5547 54.1867 31.488 54.5333 31.3547 54.84C31.2214 55.1467 31.048 55.42 30.8347 55.66C30.6347 55.9 30.4147 56.1067 30.1747 56.28C29.9347 56.44 29.708 56.5733 29.4947 56.68C30.0547 56.7867 30.5214 56.9667 30.8947 57.22C31.268 57.4733 31.568 57.7667 31.7947 58.1C32.0347 58.42 32.2014 58.7667 32.2947 59.14C32.388 59.5133 32.4347 59.88 32.4347 60.24C32.4347 60.9333 32.308 61.52 32.0547 62C31.8014 62.4667 31.4614 62.8533 31.0347 63.16C30.6214 63.4533 30.1414 63.6667 29.5947 63.8C29.0614 63.9333 28.508 64 27.9347 64H24.3547V63.8ZM31.0747 60.36C30.968 59.3333 30.6214 58.54 30.0347 57.98C29.448 57.42 28.6214 57.14 27.5547 57.14H26.4347V63.34H27.5947C28.6747 63.34 29.5214 63.1 30.1347 62.62C30.7614 62.1267 31.0747 61.4467 31.0747 60.58V60.36ZM30.2547 53.98C30.2147 53.2067 29.9414 52.5933 29.4347 52.14C28.9414 51.6867 28.2747 51.46 27.4347 51.46H26.4347V56.5H27.4747C28.0347 56.5 28.488 56.4267 28.8347 56.28C29.1947 56.1333 29.4814 55.9467 29.6947 55.72C29.908 55.48 30.0547 55.22 30.1347 54.94C30.2147 54.66 30.2547 54.3867 30.2547 54.12V53.98ZM41.2798 63.8H41.3798C41.4865 63.8 41.5798 63.7667 41.6598 63.7C41.7398 63.62 41.8065 63.5267 41.8598 63.42C41.9132 63.3 41.9532 63.18 41.9798 63.06C42.0065 62.9267 42.0198 62.8067 42.0198 62.7V57.08C41.4465 57.08 40.9732 57.2467 40.5998 57.58C40.2265 57.9 39.9198 58.3 39.6798 58.78L38.0798 62C37.9598 62.2533 37.8265 62.5 37.6798 62.74C37.5465 62.98 37.3865 63.1933 37.1998 63.38C37.0132 63.5667 36.7932 63.72 36.5398 63.84C36.2865 63.9467 35.9732 64 35.5998 64H34.6798V63.8C34.9332 63.8 35.1665 63.7267 35.3798 63.58C35.5932 63.42 35.7798 63.2333 35.9398 63.02C36.1132 62.7933 36.2598 62.5667 36.3798 62.34C36.5132 62.1133 36.6198 61.92 36.6998 61.76L38.2798 58.56C38.5865 57.92 38.9798 57.4267 39.4598 57.08C39.9532 56.7333 40.5998 56.56 41.3998 56.56L36.8998 51.82C36.6732 51.58 36.4465 51.3867 36.2198 51.24C36.0065 51.0933 35.7798 51.0133 35.5398 51V50.8H37.7198V51C37.5732 51.04 37.4998 51.1133 37.4998 51.22C37.4998 51.26 37.5265 51.32 37.5798 51.4L42.0198 56.16V52.04C42.0198 51.9467 42.0065 51.84 41.9798 51.72C41.9532 51.6 41.9132 51.4867 41.8598 51.38C41.8065 51.2733 41.7398 51.1867 41.6598 51.12C41.5798 51.04 41.4865 51 41.3798 51H41.2798V50.8H44.0998V51H43.9398C43.7532 51.0267 43.6065 51.16 43.4998 51.4C43.3932 51.64 43.3398 51.8533 43.3398 52.04V56.16L47.7998 51.4C47.8532 51.3467 47.8798 51.2867 47.8798 51.22C47.8798 51.0733 47.7998 51 47.6398 51V50.8H49.8198V51C49.5932 51.0267 49.3598 51.12 49.1198 51.28C48.8798 51.4267 48.6665 51.6067 48.4798 51.82L43.9798 56.56C44.8198 56.56 45.4732 56.7333 45.9398 57.08C46.4065 57.4267 46.7998 57.92 47.1198 58.56L48.6798 61.76C48.7598 61.92 48.8598 62.1133 48.9798 62.34C49.0998 62.5667 49.2465 62.7933 49.4198 63.02C49.5932 63.2333 49.7865 63.42 49.9998 63.58C50.2132 63.7267 50.4465 63.8 50.6998 63.8V64H49.7598C49.3998 64 49.0932 63.9467 48.8398 63.84C48.5865 63.72 48.3665 63.5733 48.1798 63.4C47.9932 63.2133 47.8332 63 47.6998 62.76C47.5665 62.52 47.4332 62.2667 47.2998 62L45.6998 58.78C45.4598 58.3133 45.1532 57.9133 44.7798 57.58C44.4198 57.2467 43.9398 57.08 43.3398 57.08V62.7C43.3398 62.8067 43.3532 62.92 43.3798 63.04C43.4065 63.16 43.4465 63.28 43.4998 63.4C43.5532 63.5067 43.6132 63.6 43.6798 63.68C43.7598 63.76 43.8532 63.8 43.9598 63.8H44.0998V64H41.2798V63.8ZM65.4609 63.3V65.8H65.2609C65.2476 65.6267 65.2009 65.4333 65.1209 65.22C65.0409 65.0067 64.9276 64.8067 64.7809 64.62C64.6476 64.4467 64.4876 64.3 64.3009 64.18C64.1143 64.06 63.9076 64 63.6809 64H54.4609C54.2343 64 54.0276 64.06 53.8409 64.18C53.6543 64.3133 53.4876 64.4667 53.3409 64.64C53.2076 64.8267 53.0943 65.0267 53.0009 65.24C52.9209 65.4533 52.8743 65.64 52.8609 65.8H52.6609V63.3H53.5409C53.9676 63.3 54.2676 63.0533 54.4409 62.56L59.0409 50.5L63.6809 62.5C63.7743 62.7 63.9009 62.8867 64.0609 63.06C64.2209 63.22 64.4076 63.3 64.6209 63.3H65.4609ZM54.8809 63.3H62.5809L58.7209 53.36L54.8809 63.3ZM76.2467 63.8H76.3467C76.4534 63.8 76.5467 63.7667 76.6267 63.7C76.7067 63.62 76.7734 63.5267 76.8267 63.42C76.8934 63.3 76.9401 63.18 76.9667 63.06C76.9934 62.9267 77.0067 62.8067 77.0067 62.7V53.54L70.3667 62.52V62.7C70.3667 62.8067 70.3801 62.9267 70.4067 63.06C70.4467 63.18 70.4934 63.2933 70.5467 63.4C70.6001 63.5067 70.6667 63.6 70.7467 63.68C70.8267 63.76 70.9201 63.8 71.0267 63.8H71.1267V64H68.2867V63.8H68.3867C68.4934 63.8 68.5867 63.7667 68.6667 63.7C68.7467 63.62 68.8134 63.5267 68.8667 63.42C68.9334 63.3 68.9801 63.18 69.0067 63.06C69.0334 62.9267 69.0467 62.8067 69.0467 62.7V52.04C69.0467 51.9467 69.0334 51.84 69.0067 51.72C68.9801 51.6 68.9334 51.4867 68.8667 51.38C68.8134 51.2733 68.7467 51.1867 68.6667 51.12C68.5867 51.04 68.4934 51 68.3867 51H68.2867V50.8H71.1267V51H70.9667C70.8734 51.0133 70.7867 51.06 70.7067 51.14C70.6401 51.22 70.5801 51.3133 70.5267 51.42C70.4734 51.5133 70.4334 51.62 70.4067 51.74C70.3801 51.8467 70.3667 51.9467 70.3667 52.04V61.28L77.0067 52.3V52.04C77.0067 51.9467 76.9934 51.84 76.9667 51.72C76.9401 51.6 76.8934 51.4867 76.8267 51.38C76.7734 51.2733 76.7067 51.1867 76.6267 51.12C76.5467 51.04 76.4534 51 76.3467 51H76.2467V50.8H79.0867V51H78.9867C78.8801 51 78.7867 51.04 78.7067 51.12C78.6267 51.1867 78.5601 51.2733 78.5067 51.38C78.4534 51.4867 78.4067 51.6 78.3667 51.72C78.3401 51.84 78.3267 51.9467 78.3267 52.04V62.7C78.3267 62.8067 78.3401 62.92 78.3667 63.04C78.4067 63.16 78.4534 63.28 78.5067 63.4C78.5601 63.5067 78.6267 63.6 78.7067 63.68C78.7867 63.76 78.8801 63.8 78.9867 63.8H79.0867V64H76.2467V63.8Z" fill="white"/>
<path d="M72.7534 9C72.7534 11.3296 71.6198 13.4742 70.4418 15.0666C69.857 15.8573 69.2713 16.498 68.8322 16.9406C68.6794 17.0947 68.5446 17.2245 68.4342 17.3278C68.3239 17.2245 68.1891 17.0947 68.0362 16.9406C67.5971 16.498 67.0115 15.8573 66.4266 15.0666C65.2486 13.4742 64.115 11.3296 64.115 9C64.115 6.67044 65.2486 4.52577 66.4266 2.93339C67.0115 2.14273 67.5971 1.502 68.0362 1.0594C68.1891 0.905279 68.3239 0.775524 68.4342 0.672181C68.5446 0.775524 68.6794 0.905279 68.8322 1.0594C69.2713 1.502 69.857 2.14273 70.4418 2.93339C71.6198 4.52577 72.7534 6.67044 72.7534 9Z" stroke="white"/>
<path d="M66.5571 8.77945C68.018 10.4467 68.5896 12.8775 68.7815 14.9616C68.8766 15.9945 68.8764 16.9202 68.8523 17.5874C68.843 17.8431 68.8303 18.0602 68.8182 18.23C68.6694 18.2438 68.4792 18.2584 68.2551 18.2689C67.6705 18.2964 66.8593 18.2967 65.9543 18.1882C64.1282 17.9692 61.9983 17.3167 60.5374 15.6495C59.0765 13.9822 58.5048 11.5515 58.3129 9.46735C58.2179 8.43447 58.2181 7.50877 58.2422 6.84152C58.2514 6.58577 58.2642 6.36869 58.2763 6.1989C58.425 6.18509 58.6152 6.17057 58.8393 6.16002C59.424 6.13249 60.2351 6.13224 61.1401 6.24077C62.9663 6.45975 65.0962 7.11217 66.5571 8.77945Z" stroke="white"/>
<path d="M71.6492 8.77945C70.1883 10.4467 69.6167 12.8775 69.4248 14.9616C69.3297 15.9945 69.3299 16.9202 69.354 17.5874C69.3633 17.8431 69.376 18.0602 69.3881 18.23C69.5369 18.2438 69.7271 18.2584 69.9512 18.2689C70.5358 18.2964 71.347 18.2967 72.252 18.1882C74.0781 17.9692 76.208 17.3167 77.6689 15.6495C79.1298 13.9822 79.7015 11.5515 79.8934 9.46735C79.9884 8.43447 79.9882 7.50877 79.9641 6.84152C79.9549 6.58577 79.9421 6.36869 79.93 6.1989C79.7813 6.18509 79.5911 6.17057 79.367 6.16002C78.7823 6.13249 77.9712 6.13224 77.0662 6.24077C75.24 6.45975 73.1101 7.11217 71.6492 8.77945Z" stroke="white"/>
<path d="M47 12H2" stroke="white"/>
<path d="M136 12L90 12" stroke="white"/>
</svg>
